<?xml version="1.0" encoding="UTF-8" standalone="no"?>
<!-- Created with Inkscape (http://www.inkscape.org/) -->

<svg
   xmlns:dc="http://purl.org/dc/elements/1.1/"
   xmlns:cc="http://creativecommons.org/ns#"
   xmlns:rdf="http://www.w3.org/1999/02/22-rdf-syntax-ns#"
   xmlns:svg="http://www.w3.org/2000/svg"
   xmlns="http://www.w3.org/2000/svg"
   version="1.1"
   width="189.0098"
   height="265.42108"
   id="svg2">
  <defs
     id="defs4" />
  <metadata
     id="metadata7">
    <rdf:RDF>
      <cc:Work
         rdf:about="">
        <dc:format>image/svg+xml</dc:format>
        <dc:type
           rdf:resource="http://purl.org/dc/dcmitype/StillImage" />
        <dc:title></dc:title>
      </cc:Work>
    </rdf:RDF>
  </metadata>
  <g
     transform="translate(-65.375511,-227.8098)"
     id="layer1">
    <g
       transform="translate(-74.285711,20)"
       id="g3050">
      <g
         transform="matrix(0.60429817,0,0,0.60429817,54.396152,82.230719)"
         id="g4127">
        <path
           d="m 141.09768,207.8098 312.77573,0 -29.75744,319.98714 -124.27277,35.29212 -128.85047,-36.09425 z"
           id="rect4026"
           style="color:#000000;fill:#ad0d00;fill-opacity:1;fill-rule:nonzero;stroke:none;stroke-width:2;marker:none;visibility:visible;display:inline;overflow:visible;enable-background:accumulate" />
        <path
           d="M 299.57354,233.92659 427.75898,231.65781 405.0713,510.71639 302.97669,536.80723 z"
           id="rect4029"
           style="color:#000000;fill:#ff1504;fill-opacity:1;fill-rule:nonzero;stroke:none;stroke-width:2;marker:none;visibility:visible;display:inline;overflow:visible;enable-background:accumulate" />
      </g>
      <g
         transform="matrix(0.30930448,0,0,0.30930448,120.47606,192.95957)"
         id="g3246"
         style="fill:#ff9e9e;fill-opacity:1;stroke:#ad0d00;stroke-opacity:1">
        <path
           d="m 344.17077,173.2964 c -14.33974,-1.39073 -30.1708,9.30477 -30.01642,24.5837 -5.65222,38.62396 5.31965,77.08793 13.92183,114.34493 2.42068,6.93169 3.9644,14.70341 -0.59394,21.25578 -22.19766,52.34914 -49.02829,102.41074 -77.28022,151.69059 -6.48857,-4.83199 -12.51456,3.01833 -18.43775,5.03029 -29.49397,16.21411 -59.64201,35.75178 -75.43725,66.50096 -4.60835,9.11993 -4.36766,23.00281 6.03125,27.84375 11.91625,7.95476 28.23472,11.24624 41.0625,3.40625 24.75703,-12.75428 40.15313,-37.17307 55.92573,-59.09904 9.27868,-13.87178 17.92084,-28.23738 26.23052,-42.74471 49.53568,-16.05045 100.31681,-28.06096 151.78125,-36.15625 35.93586,19.45664 75.59147,35.22072 117,35.25 11.69011,-0.54796 23.85374,-8.58056 24.85258,-21.00464 3.22783,-10.91048 4.7139,-25.02664 -4.82133,-33.21411 -13.01851,-12.15349 -32.24016,-11.79217 -48.87378,-13.64307 -25.55086,-1.5828 -51.10203,2.6081 -76.40747,4.20557 -41.08462,-21.88974 -68.34045,-62.66538 -84.96875,-105.25 -1.67057,-8.28823 3.22214,-16.36677 3.1875,-24.75 3.04732,-20.9842 2.3166,-42.41542 5.04784,-63.33881 5.12455,-17.13993 4.82258,-39.27437 -10.79784,-50.87994 -5.11912,-3.35112 -11.4028,-4.22641 -17.40625,-4.03125 z m 3.0625,17.1875 c 11.31981,13.19605 14.28432,32.16278 11.03125,49 -3.16472,9.50414 -5.21099,20.76058 -7.875,29.6875 -5.56574,-25.67647 -9.0646,-52.94731 -3.15625,-78.6875 z m 1.40625,171.40625 c 14.84209,25.90903 34.16392,49.49531 57.8125,67.8125 -36.3803,7.26943 -72.40333,16.56107 -107.125,29.71875 17.9878,-32.1402 34.97544,-64.87697 48.34375,-99.21875 l 0.49787,0.86725 0.47088,0.82025 z m 165.8125,81 c 18.36684,0.42238 39.88195,-0.51982 54.28125,12.625 -3.28987,6.11238 -11.95714,4.97247 -17.9375,4.71875 -19.6746,-2.51138 -38.77527,-8.97774 -57.0625,-16.5 6.9002,-0.40826 13.80616,-0.75196 20.71875,-0.84375 z m -279.4375,66.59375 c -14.36879,21.75055 -29.77929,44.00035 -51.46875,59.125 -2.39503,1.11709 2.18219,-5.34342 2.6875,-6.9375 13.09913,-21.51744 31.84141,-39.0208 50.84375,-55.375 -0.6875,1.0625 -1.375,2.125 -2.0625,3.1875 z"
           id="path4463"
           style="fill:#ff9e9e;fill-opacity:1;stroke:#ad0d00;stroke-width:7.43590546;stroke-linecap:round;stroke-linejoin:round;stroke-miterlimit:4;stroke-opacity:1;stroke-dasharray:none" />
      </g>
      <g
         id="text4123">
        <path
           d="m 294.3979,457.11943 c 0.0456,4.838 3.24055,7.94162 8.0329,7.94162 4.47286,0 7.62213,-3.19491 7.62213,-7.75905 0,-3.05798 -1.41489,-5.15749 -4.33594,-6.38981 -3.78824,-1.55181 -3.97081,-1.64309 -4.70107,-2.00822 -1.55181,-0.77591 -2.28208,-1.82566 -2.28208,-3.28619 0,-2.00822 1.59746,-3.60568 3.60568,-3.60568 2.19079,0 3.46875,1.27797 3.65132,3.65132 l 3.42311,0 c -0.13693,-4.01645 -3.01234,-6.75494 -7.02879,-6.75494 -4.06209,0 -7.07443,2.9667 -7.07443,7.02879 0,1.78002 0.63898,3.33183 1.8713,4.47287 1.04975,0.95847 1.0954,0.95847 4.60979,2.41899 1.50617,0.59334 2.60157,1.14104 3.24055,1.55181 1.00411,0.68463 1.59745,1.87131 1.59745,3.24055 0,2.51028 -1.78002,4.33594 -4.19902,4.33594 -2.78413,0 -4.51851,-1.78002 -4.70107,-4.838 l -3.33183,0 m -7.03877,7.34828 3.37747,0 0,-33.72905 -3.37747,0 0,33.72905 m -9.09263,0 3.37746,0 0,-24.96589 -3.37746,0 0,24.96589 m 0,-27.97823 3.37746,0 0,-5.75082 -3.37746,0 0,5.75082 m -12.453,27.97823 3.37747,0 0,-21.90791 5.6139,0 0,-3.05798 -5.6139,0 0,-8.76316 -3.37747,0 0,8.76316 -5.3857,0 0,3.05798 5.3857,0 0,21.90791 m -8.78242,-24.96589 -3.37747,0 0,12.82526 c 0,3.05797 -0.45642,4.97492 -1.50617,6.52673 -1.41488,1.96258 -3.65132,3.10362 -6.25288,3.10362 -2.78413,0 -5.15749,-1.14104 -6.29853,-3.14926 -0.7759,-1.27796 -1.18668,-3.28619 -1.18668,-5.84211 l 0,-13.46424 -3.37747,0 0,13.46424 c 0,3.69696 0.63899,6.29853 1.96259,8.12418 1.8713,2.60156 4.88364,3.97081 8.62624,3.97081 3.87952,0 6.34417,-1.36925 8.0329,-4.47286 l 0,3.87952 3.37747,0 0,-24.96589 m -34.61692,24.96589 3.37747,0 0,-21.90791 6.20724,0 0,-3.05798 -6.20724,0 c -0.0456,-4.15337 1.59745,-5.65954 6.20724,-5.70518 l 0,-3.05798 c -6.43545,0 -9.676,2.9667 -9.58471,8.76316 l -3.87953,0 0,3.05798 3.87953,0 0,21.90791 m -7.51017,-33.72905 -3.37747,0 0,12.73397 c -2.46464,-2.96669 -5.88775,-4.56415 -9.81292,-4.56415 -7.53083,0 -13.28167,5.65955 -13.28167,13.09911 0,7.39391 5.88776,13.05346 13.60116,13.05346 4.15337,0 6.98315,-1.50617 9.49343,-5.11184 l 0,4.5185 3.37747,0 0,-33.72905 m -13.28167,11.27344 c 5.52261,0 10.04113,4.42723 10.04113,9.9042 0,5.47698 -4.38159,10.04113 -9.72164,10.04113 -5.70518,0 -10.08677,-4.38159 -10.08677,-10.08677 0,-5.47697 4.33595,-9.85856 9.76728,-9.85856 m -43.34301,-2.51028 0,33.72906 3.37747,0 0,-13.05347 c 2.19079,3.1949 5.56827,4.88364 9.72164,4.88364 7.43955,0 13.23603,-5.70519 13.23603,-13.00782 0,-7.43956 -5.70519,-13.14475 -13.14475,-13.14475 -4.24465,0 -7.71341,1.73438 -9.81292,4.88364 l 0,-4.2903 -3.37747,0 m 13.05347,2.51028 c 5.61389,0 9.85856,4.29031 9.85856,10.04113 0,5.6139 -4.24467,9.9042 -9.81292,9.9042 -5.70518,0 -9.94985,-4.33595 -9.94985,-10.08677 0,-5.52261 4.38159,-9.85856 9.90421,-9.85856"
           id="path3014" />
      </g>
    </g>
  </g>
</svg>
